<svg xmlns="http://www.w3.org/2000/svg" x="0px" y="0px" width="60" height="30" viewBox="0,0,255.98959,255.98959">
<g fill="#000000" fill-rule="nonzero" stroke="none" stroke-width="1" stroke-linecap="butt" stroke-linejoin="miter" stroke-miterlimit="10" stroke-dasharray="" stroke-dashoffset="0" font-family="none" font-weight="none" font-size="none" text-anchor="none" style="mix-blend-mode: normal"><g transform="scale(5.33333,5.33333)"><path d="M21.25,40.454l6.13,-6.142c0.694,-0.696 0.694,-1.823 0,-2.519l-16.215,-16.246c-0.694,-0.696 -1.82,-0.696 -2.514,0l-6.13,6.142c-0.694,0.696 -0.694,1.823 0,2.519l16.215,16.246c0.694,0.696 1.819,0.696 2.514,0z"></path><path d="M18.788,40.498l-6.223,-6.235c-0.669,-0.67 -0.669,-1.756 0,-2.426l23.289,-23.335c0.669,-0.67 1.753,-0.67 2.421,0l6.223,6.235c0.669,0.67 0.669,1.756 0,2.426l-23.289,23.335c-0.668,0.669 -1.752,0.669 -2.421,0z"></path></g></g>
</svg>